<?xml version="1.0" standalone="no"?>
<!DOCTYPE svg PUBLIC "-//W3C//DTD SVG 1.1//EN" "http://www.w3.org/Graphics/SVG/1.1/DTD/svg11.dtd">
<svg width="100%" height="100%" viewBox="0 0 356 228" version="1.1" xmlns="http://www.w3.org/2000/svg" xmlns:xlink="http://www.w3.org/1999/xlink" xml:space="preserve" style="fill-rule:evenodd;clip-rule:evenodd;stroke-linejoin:round;stroke-miterlimit:1.41421;">
    <g transform="matrix(1,0,0,1,-56.183,-127.809)">
        <g transform="matrix(0.723199,0,0,0.723199,19.4878,82.0506)">
            <path d="M186.604,209.371L59.654,186.771L191.909,186.771C189.315,194.274 187.547,201.808 186.604,209.371Z" style="fill:black;"/>
        </g>
        <g transform="matrix(0.723199,0,0,0.723199,19.4878,82.0506)">
            <path d="M208.31,290.829L78.654,271.024L196.891,271.024C200.134,278.137 203.94,284.739 208.31,290.829Z" style="fill:black;"/>
        </g>
        <g transform="matrix(0.723199,0,0,0.723199,19.4878,82.0506)">
            <path d="M239.632,125.251L121.654,106.771L296.494,106.771L296.494,107.088C289.012,107.17 276.19,109.555 263.232,114.076C254.719,117.046 246.852,120.771 239.632,125.251Z" style="fill:black;"/>
        </g>
        <g transform="matrix(0.723199,0,0,0.723199,19.4878,82.0506)">
            <path d="M201.508,165.538L79.654,146.771L214.564,146.771C209.713,152.444 205.361,158.7 201.508,165.538Z" style="fill:black;"/>
        </g>
        <g transform="matrix(0.723199,0,0,0.723199,19.4878,82.0506)">
            <path d="M190.584,254.232L57.654,231.024L186.153,231.024C186.786,238.729 188.263,246.465 190.584,254.232Z" style="fill:black;"/>
        </g>
        <g transform="matrix(0.723199,0,0,0.723199,19.4878,82.0506)">
            <path d="M269.525,334.07L118.654,311.024L227.046,311.024C234.203,317.023 242.231,322.232 251.128,326.652C257.236,329.685 263.368,332.158 269.525,334.07Z" style="fill:black;"/>
        </g>
        <g transform="matrix(0.227682,0.659706,-0.659706,0.227682,223.51,-120.385)">
            <path d="M549.642,151.172C553.892,151.172 557.455,152.579 560.33,155.391C563.205,158.204 564.642,161.672 564.642,165.797C564.642,170.172 563.174,173.954 560.236,177.141C557.299,180.329 553.767,181.922 549.642,181.922C545.517,181.922 541.955,180.391 538.955,177.329C535.955,174.266 534.455,170.547 534.455,166.172C534.455,161.797 535.861,158.204 538.674,155.391C541.486,152.579 545.142,151.172 549.642,151.172ZM448.392,115.547C444.017,115.547 440.361,117.016 437.424,119.954C434.486,122.891 433.017,126.547 433.017,130.922C433.017,135.047 434.58,138.61 437.705,141.61C440.83,144.61 444.517,146.11 448.767,146.11C452.892,146.11 456.549,144.547 459.736,141.422C462.924,138.297 464.517,134.672 464.517,130.547C464.517,126.172 462.986,122.579 459.924,119.766C456.861,116.954 453.017,115.547 448.392,115.547ZM499.58,35.672C530.955,35.672 557.705,46.829 579.83,69.141C601.955,91.454 613.017,118.547 613.017,150.422C613.017,181.297 601.799,207.704 579.361,229.641C556.924,251.579 529.83,262.547 498.08,262.547C467.33,262.547 440.924,251.422 418.861,229.172C396.799,206.922 385.767,180.36 385.767,149.485C385.767,117.61 396.767,90.672 418.767,68.672C440.767,46.672 467.705,35.672 499.58,35.672ZM404.142,101.672C416.892,85.547 431.642,77.485 448.392,77.485C466.517,77.485 480.705,84.36 490.955,98.11C498.705,108.36 502.58,118.672 502.58,129.047C502.58,133.297 501.392,139.922 499.017,148.922C496.767,157.547 495.642,163.86 495.642,167.86C495.642,182.235 501.017,194.641 511.767,205.079C522.517,215.516 535.267,220.735 550.017,220.735C566.767,220.735 580.33,214.235 590.705,201.235C601.08,188.235 606.267,171.235 606.267,150.235C606.267,120.485 595.861,95.016 575.049,73.829C554.236,52.641 529.205,42.047 499.955,42.047C478.955,42.047 459.892,47.391 442.767,58.079C425.642,68.766 412.767,83.297 404.142,101.672Z" style="fill:black;fill-rule:nonzero;"/>
        </g>
    </g>
</svg>
