<?xml version="1.0" standalone="no"?>
<!DOCTYPE svg PUBLIC "-//W3C//DTD SVG 20010904//EN"
 "http://www.w3.org/TR/2001/REC-SVG-20010904/DTD/svg10.dtd">
<svg version="1.0" xmlns="http://www.w3.org/2000/svg"
 width="300.000000pt" height="300.000000pt" viewBox="0 0 300.000000 300.000000"
 preserveAspectRatio="xMidYMid meet">
<metadata>
Created by potrace 1.11, written by Peter Selinger 2001-2013
</metadata>
<g transform="translate(0.000000,300.000000) scale(0.100000,-0.100000)"
fill="#000000" stroke="none">
<path d="M0 1500 l0 -1500 1500 0 1500 0 0 1500 0 1500 -1500 0 -1500 0 0
-1500z m680 -7 l0 -448 -155 155 -155 155 0 292 0 293 155 0 155 0 0 -447z
m750 -3 l0 -450 -150 0 -150 0 0 295 0 295 -190 0 -190 0 0 155 0 155 340 0
340 0 0 -450z m1042 293 l158 -158 0 -292 0 -293 -155 0 -155 0 0 295 0 295
-35 0 -35 0 0 -157 0 -158 -158 158 c-138 138 -161 157 -190 157 l-32 0 0
-295 0 -295 -150 0 -150 0 0 450 0 450 372 0 373 0 157 -157z"/>
</g>
</svg>
